HIERARCHY
ROOT Hips
{
	OFFSET 0.00000 0.00000 0.00000
	CHANNELS 6 Xposition Yposition Zposition Zrotation Yrotation Xrotation 
	JOINT LHipJoint
	{
		OFFSET 0 0 0
		CHANNELS 3 Zrotation Yrotation Xrotation
		JOINT LeftHip
		{
			OFFSET 1.09156 -1.61406 0.76500
			CHANNELS 3 Zrotation Yrotation Xrotation
			JOINT LeftKnee
			{
				OFFSET 2.33750 -6.42225 0.00000
				CHANNELS 3 Zrotation Yrotation Xrotation
				JOINT LeftAnkle
				{
					OFFSET 2.49247 -6.84800 0.00000
					CHANNELS 3 Zrotation Yrotation Xrotation
					JOINT LeftToe
					{
						OFFSET 0.15312 -0.42069 1.45461
						CHANNELS 3 Zrotation Yrotation Xrotation
						End Site
						{
							OFFSET 0.00000 -0.00000 0.77046
						}
					}
				}
			}
		}
	}
	JOINT RHipJoint
	{
		OFFSET 0 0 0
		CHANNELS 3 Zrotation Yrotation Xrotation
		JOINT RightHip
		{
			OFFSET -0.99883 -1.61406 0.76500
			CHANNELS 3 Zrotation Yrotation Xrotation
			JOINT RightKnee
			{
				OFFSET -2.36877 -6.50815 0.00000
				CHANNELS 3 Zrotation Yrotation Xrotation
				JOINT RightAnkle
				{
					OFFSET -2.53452 -6.96353 0.00000
					CHANNELS 3 Zrotation Yrotation Xrotation
					JOINT RightToe
					{
						OFFSET -0.13156 -0.36145 1.63237
						CHANNELS 3 Zrotation Yrotation Xrotation
						End Site
						{
							OFFSET -0.00000 -0.00000 0.84979
						}
					}
				}
			}
		}
	}
	JOINT lowerback
	{
		OFFSET 0 0 0
		CHANNELS 3 Zrotation Yrotation Xrotation
		JOINT Chest
		{
			OFFSET -0.02431 1.98242 -0.13616
			CHANNELS 3 Zrotation Yrotation Xrotation
			JOINT Chest2
			{
				OFFSET 0.03629 1.98974 -0.02954
				CHANNELS 3 Zrotation Yrotation Xrotation
				JOINT lowerneck
				{
					OFFSET 0 0 0
					CHANNELS 3 Zrotation Yrotation Xrotation
					JOINT Neck
					{
						OFFSET 0.09349 1.40783 0.22333
						CHANNELS 3 Zrotation Yrotation Xrotation
						JOINT Head
						{
							OFFSET -0.04273 1.44500 -0.06495
							CHANNELS 3 Zrotation Yrotation Xrotation
							End Site
							{
								OFFSET -0.02251 1.44600 -0.04544
							}
						}
					}
				}
				JOINT LeftCollar
				{
					OFFSET 0 0 0
					CHANNELS 3 Zrotation Yrotation Xrotation
					JOINT LeftShoulder
					{
						OFFSET 3.49137 0.85126 -0.29740
CHANNELS 3 Zrotation Xrotation Yrotation
						JOINT LeftElbow
						{
OFFSET 0 -5.060350 0.000000
CHANNELS 3 Zrotation Xrotation Yrotation
							JOINT LeftWrist
							{
OFFSET 0 -3.147800 0.000000
CHANNELS 3 Zrotation Xrotation Yrotation
								JOINT lhand
								{
									OFFSET 0 0 0
CHANNELS 3 Zrotation Xrotation Yrotation
									JOINT LFingers
									{
OFFSET 0 -0.606750 0.000000
CHANNELS 3 Zrotation Xrotation Yrotation
										End Site
										{
OFFSET 0 -0.489180 0.000000
										}
									}
								}
								JOINT LThumb
								{
OFFSET 0 0.000000 0.000000
CHANNELS 3 Zrotation Xrotation Yrotation
									End Site
									{
OFFSET 0 -0.496640 0.496640
									}
								}
							}
						}
					}
				}
				JOINT RightCollar
				{
					OFFSET 0 0 0
					CHANNELS 3 Zrotation Yrotation Xrotation
					JOINT RightShoulder
					{
						OFFSET -3.28101 0.69707 0.00747
CHANNELS 3 Zrotation Xrotation Yrotation
						JOINT RightElbow
						{
OFFSET 0 -5.122730 -0.000000
CHANNELS 3 Zrotation Xrotation Yrotation
							JOINT RightWrist
							{
OFFSET 0 -3.422000 0.000000
CHANNELS 3 Zrotation Xrotation Yrotation
								JOINT rhand
								{
									OFFSET 0 0 0
CHANNELS 3 Zrotation Xrotation Yrotation
									JOINT RFingers
									{
OFFSET 0 -0.704600 0.000000
CHANNELS 3 Zrotation Xrotation Yrotation
										End Site
										{
OFFSET 0 -0.568070 0.000000
										}
									}
								}
								JOINT RThumb
								{
OFFSET 0 0.000000 0.000000
CHANNELS 3 Zrotation Xrotation Yrotation
									End Site
									{
OFFSET 0 -0.576740 0.576740
									}
								}
							}
						}
					}
				}
			}
		}
	}
}
MOTION
Frames: 6
Frame Time: 0.008333333333333333
50.413800 16.352700 4.287700 178.036000 -86.700500 -168.612000 0.000000 0.000000 0.000000 -19.215400 -4.596600 -13.644200 2.462500 9.769400 28.233000 2.314600 -1.809400 -28.309800 0.802300 5.716700 15.964700 0.000000 0.000000 0.000000 12.990900 6.271000 -10.560200 -1.338600 -7.325500 20.683500 -0.505300 -9.184500 -19.768200 -0.435800 4.236000 -11.741600 -2.579900 -0.538600 -3.646000 -0.229000 -0.713700 -3.076800 1.192400 -0.341100 -1.087700 4.315200 -0.174500 -9.185300 1.144400 -0.923400 6.963300 -0.444800 -0.291200 3.913600 0.000000 -0.000000 0.000000 -0.085900 -3.662800 -9.782700 7.073500 -12.040100 0.746900 19.848900 27.537900 -42.929600 0.000000 0.000000 0.000000 -7.125000 0.000000 0.000000 -29.245300 72.860700 19.783600 0.000000 -0.000000 0.000000 1.035600 -1.983200 6.066600 -9.148000 -15.396000 -1.239100 -19.653700 5.661100 -35.066800 0.000000 0.000000 0.000000 7.125000 0.000000 -0.000000 7.254000 -6.458100 8.085700
50.396745 16.347807 4.313741 170.191668 -87.505131 -160.773082 0.000000 0.000000 0.000000 -19.495394 -4.615626 -13.705398 2.465252 9.774465 28.249491 2.267979 -2.495532 -27.847870 0.724143 5.437354 15.160262 0.000000 0.000000 0.000000 12.698969 6.298867 -10.190462 -1.335236 -7.316775 20.657287 -0.471538 -9.909968 -20.130090 -0.434034 4.212797 -11.678289 -2.829758 -0.953017 -3.428298 -0.046324 -1.272761 -3.263496 1.510169 -0.610528 -1.371341 4.383156 -0.048869 -8.650052 0.792692 -0.684077 6.321265 -0.553822 -0.200470 3.584132 0.000000 0.000000 0.000000 -0.539621 -3.185641 -8.713236 7.052343 -12.005322 0.742506 19.676760 28.145390 -42.966462 0.000000 0.000000 0.000000 -7.125000 0.000000 0.000000 -29.528419 72.829239 19.964571 0.000000 0.000000 0.000000 0.648932 -1.597010 6.181866 -9.156053 -15.408787 -1.241295 -21.051250 4.975984 -33.909751 0.000000 0.000000 0.000000 7.125000 0.000000 0.000000 6.313073 -5.591580 6.938720
50.387114 16.345782 4.340695 172.864738 -86.883068 -163.199983 0.000000 0.000000 0.000000 -19.667892 -4.482166 -13.940568 2.466571 9.776865 28.257133 2.300313 -2.264345 -28.107620 0.768185 5.589894 15.600866 0.000000 0.000000 0.000000 12.472351 6.604254 -10.540688 -1.339501 -7.328098 20.691057 -0.468238 -9.681041 -19.867798 -0.547257 4.733133 -13.149983 -2.849738 -0.798743 -3.430847 0.069796 -1.074553 -3.461039 1.647347 -0.507111 -1.580418 4.385689 0.124938 -8.729001 0.739068 -0.452097 6.350334 -0.559139 -0.086684 3.615044 0.000000 0.000000 0.000000 -0.800623 -2.941998 -7.977590 6.990145 -11.902951 0.729633 19.706551 28.777297 -42.849680 0.000000 0.000000 0.000000 -7.125000 0.000000 0.000000 -29.249540 72.745448 19.715585 0.000000 0.000000 0.000000 0.447372 -1.299844 6.167006 -9.237153 -15.537479 -1.262924 -21.192867 4.644872 -33.610756 0.000000 0.000000 0.000000 7.125000 0.000000 0.000000 6.189054 -5.320077 6.774265
50.371796 16.341004 4.372074 173.718957 -86.697980 -163.924047 0.000000 0.000000 0.000000 -19.773108 -4.292711 -14.110700 2.466651 9.777019 28.257541 2.310637 -2.342018 -28.153633 0.815716 5.761414 16.094303 0.000000 0.000000 0.000000 12.333392 6.891597 -10.606513 -1.344072 -7.339972 20.726441 -0.458850 -9.751784 -19.838580 -0.486307 4.471371 -12.406759 -2.694167 -0.717155 -3.366165 0.114609 -0.971913 -3.508318 1.609637 -0.457079 -1.671484 4.381744 0.303464 -9.307555 0.813109 -0.255584 6.587519 -0.523721 0.020793 3.818385 0.000000 0.000000 0.000000 -0.919956 -3.000814 -7.546267 6.836036 -11.649065 0.698233 19.830581 29.483047 -42.874878 0.000000 0.000000 0.000000 -7.125000 0.000000 0.000000 -29.153405 72.809837 19.687420 0.000000 0.000000 0.000000 0.343879 -1.229270 6.032339 -9.344748 -15.708171 -1.291901 -21.009084 4.454288 -33.449305 0.000000 0.000000 0.000000 7.125000 0.000000 0.000000 6.266148 -5.117511 6.839528
50.357367 16.336765 4.399980 167.488280 -87.340667 -157.693290 0.000000 0.000000 0.000000 -19.952182 -3.989415 -14.257070 2.463302 9.770868 28.237841 2.264147 -3.236514 -27.665966 0.676164 5.253263 14.633481 0.000000 0.000000 0.000000 12.147435 7.050661 -10.310128 -1.354443 -7.367232 20.807863 -0.415426 -10.523456 -20.184108 -0.493014 4.501763 -12.492740 -2.679060 -0.864792 -3.105248 0.078384 -1.167323 -3.321144 1.562603 -0.554929 -1.616112 4.486487 0.425320 -10.709261 0.850769 -0.196321 6.912430 -0.533388 0.066242 4.216785 0.000000 0.000000 0.000000 -0.941402 -3.561022 -7.058180 6.661109 -11.360131 0.663339 19.601200 30.314112 -43.031132 0.000000 0.000000 0.000000 -7.125000 0.000000 0.000000 -29.753891 72.854228 20.139930 0.000000 0.000000 0.000000 0.343834 -1.741605 5.368148 -9.337659 -15.696937 -1.289931 -20.764693 4.634339 -33.490607 0.000000 0.000000 0.000000 7.125000 0.000000 0.000000 6.407633 -5.107331 6.994927
50.328999 16.331233 4.426483 163.270376 -87.509964 -153.404960 0.000000 0.000000 0.000000 -20.209011 -3.732122 -14.332667 2.459786 9.764359 28.217008 2.262380 -3.837412 -27.533273 0.912452 6.083951 17.028905 0.000000 0.000000 0.000000 11.877175 7.183618 -10.196837 -1.368035 -7.402555 20.913571 -0.499879 -10.449727 -20.959770 -0.367627 3.893028 -10.775983 -2.941491 -0.870376 -3.287745 0.147814 -1.169039 -3.428302 1.778871 -0.550200 -1.618934 4.883845 0.366670 -9.863947 0.416133 -0.224781 6.202513 -0.746640 0.025594 3.795089 0.000000 0.000000 0.000000 -1.122186 -3.364119 -6.563222 6.508970 -11.108307 0.633652 19.393498 30.953096 -42.833421 0.000000 0.000000 0.000000 -7.125000 0.000000 0.000000 -29.589780 72.621514 19.878552 0.000000 0.000000 0.000000 0.150450 -1.401226 4.971281 -9.405607 -15.804454 -1.308421 -20.588106 4.461735 -33.634287 0.000000 0.000000 0.000000 7.125000 0.000000 0.000000 6.526815 -5.214999 7.137712
